<svg xmlns="http://www.w3.org/2000/svg" xmlns:xlink="http://www.w3.org/1999/xlink" width="500" zoomAndPan="magnify" viewBox="0 0 375 374.999991" height="500" preserveAspectRatio="xMidYMid meet" version="1.0"><defs><clipPath id="2f34a093fc"><path d="M 224 99.777344 L 258.953125 99.777344 L 258.953125 134 L 224 134 Z M 224 99.777344 " clip-rule="nonzero"/></clipPath><clipPath id="ca9d853069"><path d="M 128 99.777344 L 258.953125 99.777344 L 258.953125 275.277344 L 128 275.277344 Z M 128 99.777344 " clip-rule="nonzero"/></clipPath><clipPath id="4055e018ad"><path d="M 227 133 L 258.953125 133 L 258.953125 140 L 227 140 Z M 227 133 " clip-rule="nonzero"/></clipPath><clipPath id="ab0f17c8b9"><path d="M 105.953125 108 L 208 108 L 208 154 L 105.953125 154 Z M 105.953125 108 " clip-rule="nonzero"/></clipPath></defs><rect x="-37.5" width="450" fill="#ffffff" y="-37.499999" height="449.999989" fill-opacity="1"/><rect x="-37.5" width="450" fill="#ffffff" y="-37.499999" height="449.999989" fill-opacity="1"/><g clip-path="url(#2f34a093fc)"><path fill="#59caff" d="M 224.941406 99.777344 L 258.929688 133.746094 L 224.941406 133.746094 Z M 224.941406 99.777344 " fill-opacity="1" fill-rule="nonzero"/></g><g clip-path="url(#ca9d853069)"><path fill="#0096dc" d="M 258.929688 133.746094 L 258.929688 275.277344 L 128.632812 275.277344 L 128.632812 99.777344 L 224.941406 99.777344 L 224.941406 133.746094 Z M 258.929688 133.746094 " fill-opacity="1" fill-rule="nonzero"/></g><path fill="#006bc0" d="M 134.300781 122.421875 L 134.300781 258.292969 C 134.300781 259.035156 134.371094 259.773438 134.515625 260.503906 C 134.664062 261.230469 134.878906 261.941406 135.164062 262.625 C 135.445312 263.3125 135.796875 263.964844 136.210938 264.585938 C 136.621094 265.203125 137.09375 265.773438 137.617188 266.300781 C 138.144531 266.824219 138.714844 267.292969 139.335938 267.707031 C 139.953125 268.121094 140.605469 268.46875 141.292969 268.753906 C 141.980469 269.039062 142.691406 269.253906 143.417969 269.398438 C 144.148438 269.542969 144.886719 269.617188 145.628906 269.617188 L 241.933594 269.617188 C 242.679688 269.617188 243.417969 269.542969 244.144531 269.398438 C 244.875 269.253906 245.582031 269.039062 246.269531 268.753906 C 246.957031 268.46875 247.613281 268.121094 248.230469 267.707031 C 248.847656 267.292969 249.421875 266.824219 249.945312 266.300781 C 250.472656 265.773438 250.941406 265.203125 251.355469 264.585938 C 251.769531 263.964844 252.117188 263.3125 252.402344 262.625 C 252.6875 261.941406 252.902344 261.230469 253.046875 260.503906 C 253.191406 259.773438 253.265625 259.035156 253.265625 258.292969 L 253.265625 252.285156 C 134.300781 244.957031 134.300781 122.421875 134.300781 122.421875 Z M 134.300781 122.421875 " fill-opacity="1" fill-rule="nonzero"/><g clip-path="url(#4055e018ad)"><path fill="#005599" d="M 227.773438 133.746094 L 258.929688 133.746094 L 258.929688 139.40625 L 227.773438 139.40625 Z M 227.773438 133.746094 " fill-opacity="1" fill-rule="nonzero"/></g><g clip-path="url(#ab0f17c8b9)"><path fill="#006bc0" d="M 105.972656 108.269531 L 207.945312 108.269531 L 207.945312 153.558594 L 105.972656 153.558594 Z M 105.972656 108.269531 " fill-opacity="1" fill-rule="nonzero"/></g><path fill="#005599" d="M 128.632812 153.558594 L 202.28125 153.558594 L 202.28125 162.050781 L 128.632812 162.050781 Z M 128.632812 153.558594 " fill-opacity="1" fill-rule="nonzero"/><path fill="#ffffff" d="M 173.953125 244.140625 L 171.121094 244.140625 C 170.191406 244.140625 169.273438 244.046875 168.359375 243.867188 C 167.449219 243.683594 166.5625 243.414062 165.707031 243.058594 C 164.847656 242.703125 164.03125 242.265625 163.257812 241.75 C 162.484375 241.234375 161.769531 240.648438 161.113281 239.988281 C 160.457031 239.332031 159.867188 238.617188 159.351562 237.847656 C 158.835938 237.074219 158.398438 236.257812 158.042969 235.402344 C 157.6875 234.542969 157.417969 233.65625 157.234375 232.746094 C 157.050781 231.835938 156.960938 230.917969 156.960938 229.988281 L 156.960938 221.496094 C 156.839844 221.125 156.234375 220.777344 155.796875 220.523438 C 154.445312 219.800781 153.21875 218.902344 152.117188 217.835938 C 151.851562 217.570312 151.644531 217.265625 151.503906 216.917969 C 151.359375 216.570312 151.285156 216.210938 151.285156 215.832031 C 151.285156 215.457031 151.359375 215.097656 151.503906 214.75 C 151.644531 214.402344 151.851562 214.097656 152.117188 213.832031 C 153.21875 212.765625 154.445312 211.867188 155.796875 211.144531 C 156.210938 210.925781 156.597656 210.671875 156.960938 210.382812 L 156.960938 201.679688 C 156.960938 200.75 157.050781 199.832031 157.234375 198.921875 C 157.417969 198.007812 157.6875 197.125 158.042969 196.265625 C 158.398438 195.410156 158.835938 194.59375 159.351562 193.820312 C 159.867188 193.050781 160.457031 192.335938 161.113281 191.679688 C 161.769531 191.019531 162.484375 190.433594 163.257812 189.917969 C 164.03125 189.402344 164.847656 188.964844 165.707031 188.609375 C 166.5625 188.253906 167.449219 187.984375 168.359375 187.800781 C 169.273438 187.621094 170.191406 187.527344 171.121094 187.527344 L 173.953125 187.527344 L 173.953125 193.1875 L 171.121094 193.1875 C 170.566406 193.1875 170.011719 193.242188 169.464844 193.351562 C 168.917969 193.460938 168.386719 193.621094 167.871094 193.835938 C 167.355469 194.046875 166.867188 194.308594 166.402344 194.621094 C 165.9375 194.929688 165.507812 195.28125 165.113281 195.675781 C 164.71875 196.070312 164.367188 196.5 164.058594 196.960938 C 163.746094 197.425781 163.484375 197.914062 163.273438 198.429688 C 163.058594 198.945312 162.898438 199.476562 162.789062 200.023438 C 162.679688 200.570312 162.625 201.125 162.625 201.679688 L 162.625 210.171875 C 162.625 210.769531 162.542969 211.351562 162.378906 211.925781 C 162.210938 212.496094 161.964844 213.035156 161.644531 213.539062 C 161.324219 214.039062 160.9375 214.484375 160.488281 214.875 C 160.035156 215.265625 159.539062 215.585938 158.996094 215.832031 C 159.539062 216.082031 160.035156 216.402344 160.488281 216.792969 C 160.9375 217.183594 161.324219 217.628906 161.644531 218.128906 C 161.964844 218.632812 162.210938 219.167969 162.378906 219.742188 C 162.542969 220.316406 162.625 220.898438 162.625 221.496094 L 162.625 229.988281 C 162.625 230.542969 162.679688 231.097656 162.789062 231.644531 C 162.898438 232.191406 163.058594 232.722656 163.273438 233.238281 C 163.484375 233.753906 163.746094 234.242188 164.058594 234.703125 C 164.367188 235.167969 164.71875 235.597656 165.113281 235.992188 C 165.507812 236.386719 165.9375 236.738281 166.402344 237.046875 C 166.867188 237.359375 167.355469 237.621094 167.871094 237.832031 C 168.386719 238.046875 168.917969 238.207031 169.464844 238.316406 C 170.011719 238.425781 170.566406 238.480469 171.121094 238.480469 L 173.953125 238.480469 Z M 173.953125 244.140625 " fill-opacity="1" fill-rule="nonzero"/><path fill="#ffffff" d="M 216.441406 244.140625 L 213.609375 244.140625 L 213.609375 238.480469 L 216.441406 238.480469 C 217 238.480469 217.554688 238.425781 218.101562 238.316406 C 218.648438 238.207031 219.179688 238.046875 219.695312 237.832031 C 220.210938 237.621094 220.699219 237.359375 221.164062 237.046875 C 221.628906 236.738281 222.058594 236.386719 222.453125 235.992188 C 222.847656 235.597656 223.199219 235.167969 223.507812 234.703125 C 223.816406 234.242188 224.078125 233.753906 224.292969 233.238281 C 224.507812 232.722656 224.667969 232.191406 224.777344 231.644531 C 224.886719 231.097656 224.941406 230.542969 224.941406 229.988281 L 224.941406 221.496094 C 224.9375 220.898438 225.019531 220.316406 225.1875 219.742188 C 225.355469 219.167969 225.597656 218.632812 225.921875 218.128906 C 226.242188 217.628906 226.628906 217.183594 227.078125 216.792969 C 227.53125 216.402344 228.027344 216.082031 228.570312 215.832031 C 228.027344 215.585938 227.53125 215.265625 227.078125 214.875 C 226.628906 214.484375 226.242188 214.039062 225.921875 213.539062 C 225.597656 213.035156 225.355469 212.496094 225.1875 211.925781 C 225.019531 211.351562 224.9375 210.769531 224.941406 210.171875 L 224.941406 201.679688 C 224.941406 201.125 224.886719 200.570312 224.777344 200.023438 C 224.667969 199.476562 224.507812 198.945312 224.292969 198.429688 C 224.078125 197.914062 223.816406 197.425781 223.507812 196.960938 C 223.199219 196.5 222.847656 196.070312 222.453125 195.675781 C 222.058594 195.28125 221.628906 194.929688 221.164062 194.621094 C 220.699219 194.308594 220.210938 194.046875 219.695312 193.835938 C 219.179688 193.621094 218.648438 193.460938 218.101562 193.351562 C 217.554688 193.242188 217 193.1875 216.441406 193.1875 L 213.609375 193.1875 L 213.609375 187.527344 L 216.441406 187.527344 C 217.371094 187.527344 218.292969 187.621094 219.203125 187.800781 C 220.117188 187.984375 221 188.253906 221.859375 188.609375 C 222.71875 188.964844 223.535156 189.402344 224.308594 189.917969 C 225.078125 190.433594 225.796875 191.019531 226.453125 191.679688 C 227.109375 192.335938 227.695312 193.050781 228.214844 193.820312 C 228.730469 194.59375 229.167969 195.410156 229.523438 196.265625 C 229.878906 197.125 230.148438 198.007812 230.332031 198.921875 C 230.511719 199.832031 230.605469 200.75 230.605469 201.679688 L 230.605469 210.171875 C 230.726562 210.542969 231.332031 210.890625 231.765625 211.144531 C 233.121094 211.867188 234.347656 212.765625 235.449219 213.832031 C 235.714844 214.097656 235.917969 214.402344 236.0625 214.75 C 236.207031 215.097656 236.277344 215.457031 236.277344 215.832031 C 236.277344 216.210938 236.207031 216.570312 236.0625 216.917969 C 235.917969 217.265625 235.714844 217.570312 235.449219 217.835938 C 234.347656 218.902344 233.121094 219.800781 231.765625 220.523438 C 231.351562 220.738281 230.960938 220.992188 230.597656 221.285156 L 230.605469 229.988281 C 230.605469 230.917969 230.511719 231.835938 230.332031 232.746094 C 230.148438 233.65625 229.878906 234.542969 229.523438 235.402344 C 229.167969 236.257812 228.730469 237.074219 228.214844 237.847656 C 227.695312 238.617188 227.109375 239.332031 226.453125 239.988281 C 225.796875 240.648438 225.078125 241.234375 224.308594 241.75 C 223.535156 242.265625 222.71875 242.703125 221.859375 243.058594 C 221 243.414062 220.117188 243.683594 219.203125 243.867188 C 218.292969 244.046875 217.371094 244.140625 216.441406 244.140625 Z M 216.441406 244.140625 " fill-opacity="1" fill-rule="nonzero"/><path fill="#005599" d="M 224.941406 241.308594 C 224.28125 242.1875 223.527344 242.976562 222.683594 243.683594 C 221.839844 244.386719 220.925781 244.984375 219.941406 245.472656 C 218.960938 245.964844 217.933594 246.335938 216.863281 246.589844 C 215.792969 246.84375 214.710938 246.96875 213.609375 246.972656 L 210.777344 246.972656 L 210.777344 241.308594 L 213.609375 241.308594 L 213.609375 244.140625 L 216.441406 244.140625 C 217.976562 244.144531 219.46875 243.90625 220.925781 243.421875 C 222.378906 242.9375 223.71875 242.234375 224.941406 241.308594 Z M 224.941406 241.308594 " fill-opacity="1" fill-rule="nonzero"/><path fill="#005599" d="M 225.535156 218.777344 C 225.117188 219.636719 224.921875 220.542969 224.941406 221.496094 L 224.941406 229.988281 C 224.9375 230.714844 224.84375 231.429688 224.660156 232.132812 C 224.472656 232.835938 224.203125 233.507812 223.84375 234.140625 C 223.488281 234.773438 223.054688 235.355469 222.550781 235.878906 C 222.046875 236.402344 221.484375 236.855469 220.863281 237.234375 C 221.691406 235.878906 222.109375 234.40625 222.109375 232.816406 L 222.109375 224.324219 C 222.101562 223.75 222.175781 223.183594 222.332031 222.625 C 222.488281 222.070312 222.714844 221.546875 223.019531 221.058594 C 223.324219 220.566406 223.6875 220.125 224.117188 219.738281 C 224.542969 219.351562 225.015625 219.03125 225.535156 218.777344 Z M 225.535156 218.777344 " fill-opacity="1" fill-rule="nonzero"/><path fill="#005599" d="M 233.269531 219.597656 C 233.144531 220.011719 232.925781 220.371094 232.617188 220.675781 C 231.996094 221.292969 231.324219 221.847656 230.605469 222.34375 L 230.605469 221.296875 C 230.964844 221 231.351562 220.746094 231.765625 220.53125 C 232.289062 220.253906 232.789062 219.941406 233.269531 219.597656 Z M 233.269531 219.597656 " fill-opacity="1" fill-rule="nonzero"/><path fill="#005599" d="M 228.566406 215.832031 C 227.320312 216.476562 226.335938 217.402344 225.621094 218.609375 C 225.09375 218.355469 224.609375 218.03125 224.171875 217.640625 C 223.738281 217.253906 223.363281 216.808594 223.054688 216.3125 C 222.742188 215.816406 222.507812 215.289062 222.34375 214.726562 C 222.183594 214.164062 222.105469 213.589844 222.109375 213.003906 L 222.109375 204.511719 C 222.105469 203.953125 222.050781 203.402344 221.941406 202.855469 C 221.832031 202.308594 221.667969 201.78125 221.453125 201.265625 C 221.238281 200.75 220.976562 200.261719 220.667969 199.800781 C 220.359375 199.335938 220.003906 198.90625 219.613281 198.515625 C 219.21875 198.121094 218.789062 197.769531 218.324219 197.457031 C 217.863281 197.148438 217.371094 196.886719 216.859375 196.671875 C 216.34375 196.457031 215.8125 196.296875 215.265625 196.1875 C 214.71875 196.078125 214.167969 196.019531 213.609375 196.019531 L 210.777344 196.019531 L 210.777344 190.359375 L 213.609375 190.359375 L 213.609375 193.1875 L 216.441406 193.1875 C 217 193.191406 217.550781 193.246094 218.097656 193.355469 C 218.644531 193.464844 219.175781 193.628906 219.691406 193.84375 C 220.207031 194.054688 220.695312 194.316406 221.15625 194.628906 C 221.621094 194.9375 222.050781 195.289062 222.445312 195.683594 C 222.839844 196.078125 223.191406 196.503906 223.5 196.96875 C 223.808594 197.433594 224.074219 197.921875 224.285156 198.433594 C 224.5 198.949219 224.664062 199.480469 224.773438 200.027344 C 224.882812 200.570312 224.9375 201.125 224.941406 201.679688 L 224.941406 210.171875 C 224.9375 210.769531 225.023438 211.351562 225.1875 211.925781 C 225.355469 212.496094 225.597656 213.035156 225.921875 213.535156 C 226.242188 214.039062 226.628906 214.484375 227.078125 214.875 C 227.527344 215.265625 228.023438 215.585938 228.566406 215.832031 Z M 228.566406 215.832031 " fill-opacity="1" fill-rule="nonzero"/><path fill="#005599" d="M 171.121094 244.140625 L 171.121094 246.972656 L 168.289062 246.972656 C 167.359375 246.972656 166.4375 246.878906 165.527344 246.699219 C 164.613281 246.519531 163.730469 246.25 162.871094 245.894531 C 162.011719 245.539062 161.195312 245.101562 160.421875 244.585938 C 159.648438 244.070312 158.933594 243.484375 158.277344 242.824219 C 157.617188 242.167969 157.03125 241.453125 156.515625 240.679688 C 155.996094 239.90625 155.5625 239.09375 155.207031 238.234375 C 154.847656 237.375 154.582031 236.492188 154.398438 235.578125 C 154.21875 234.667969 154.128906 233.746094 154.128906 232.816406 L 154.128906 224.324219 C 154.015625 223.957031 153.390625 223.617188 152.964844 223.363281 C 151.617188 222.632812 150.390625 221.734375 149.285156 220.675781 C 149.019531 220.40625 148.8125 220.097656 148.671875 219.75 C 148.527344 219.402344 148.457031 219.042969 148.457031 218.664062 C 148.457031 218.289062 148.527344 217.925781 148.671875 217.578125 C 148.8125 217.230469 149.019531 216.921875 149.285156 216.65625 C 149.957031 216.003906 150.683594 215.417969 151.464844 214.898438 C 151.277344 215.410156 151.242188 215.933594 151.359375 216.46875 C 151.476562 217 151.730469 217.457031 152.117188 217.84375 C 153.222656 218.90625 154.449219 219.800781 155.796875 220.53125 C 156.222656 220.789062 156.847656 221.128906 156.960938 221.496094 L 156.960938 229.988281 C 156.960938 230.917969 157.050781 231.835938 157.230469 232.75 C 157.414062 233.660156 157.683594 234.542969 158.039062 235.402344 C 158.394531 236.261719 158.828125 237.078125 159.347656 237.851562 C 159.863281 238.621094 160.449219 239.335938 161.109375 239.996094 C 161.765625 240.652344 162.480469 241.238281 163.253906 241.753906 C 164.027344 242.269531 164.84375 242.707031 165.703125 243.0625 C 166.5625 243.417969 167.449219 243.6875 168.359375 243.867188 C 169.273438 244.050781 170.191406 244.140625 171.121094 244.140625 Z M 171.121094 244.140625 " fill-opacity="1" fill-rule="nonzero"/><path fill="#005599" d="M 159.792969 193.1875 C 158.867188 194.410156 158.164062 195.75 157.679688 197.203125 C 157.191406 198.65625 156.953125 200.148438 156.960938 201.679688 L 156.960938 210.371094 C 156.601562 210.667969 156.214844 210.921875 155.796875 211.136719 C 155.316406 211.417969 154.75 211.757812 154.128906 212.152344 L 154.128906 204.511719 C 154.128906 203.414062 154.253906 202.328125 154.507812 201.261719 C 154.761719 200.191406 155.132812 199.164062 155.625 198.183594 C 156.117188 197.199219 156.714844 196.289062 157.417969 195.445312 C 158.121094 194.601562 158.914062 193.847656 159.792969 193.1875 Z M 159.792969 193.1875 " fill-opacity="1" fill-rule="nonzero"/><path fill="#005599" d="M 171.121094 193.1875 L 171.121094 196.019531 L 168.289062 196.019531 C 166.699219 196.019531 165.226562 196.433594 163.871094 197.265625 C 164.25 196.644531 164.703125 196.082031 165.226562 195.578125 C 165.75 195.070312 166.332031 194.640625 166.964844 194.285156 C 167.601562 193.925781 168.269531 193.65625 168.972656 193.46875 C 169.679688 193.285156 170.394531 193.191406 171.121094 193.1875 Z M 171.121094 193.1875 " fill-opacity="1" fill-rule="nonzero"/><path fill="#ffffff" d="M 154.128906 145.066406 C 145.164062 145.066406 142.796875 139.515625 142.796875 136.574219 L 145.628906 136.574219 L 148.460938 136.492188 C 148.496094 136.980469 148.914062 139.40625 154.128906 139.40625 C 154.503906 139.40625 154.863281 139.335938 155.210938 139.191406 C 155.558594 139.046875 155.863281 138.84375 156.128906 138.578125 C 156.394531 138.3125 156.601562 138.007812 156.746094 137.660156 C 156.886719 137.3125 156.960938 136.953125 156.960938 136.574219 C 156.960938 136.199219 156.886719 135.839844 156.746094 135.492188 C 156.601562 135.144531 156.394531 134.839844 156.128906 134.574219 C 155.863281 134.308594 155.558594 134.105469 155.210938 133.960938 C 154.863281 133.816406 154.503906 133.746094 154.128906 133.746094 L 151.292969 133.746094 C 150.738281 133.746094 150.183594 133.691406 149.636719 133.582031 C 149.089844 133.472656 148.558594 133.3125 148.042969 133.097656 C 147.527344 132.886719 147.039062 132.625 146.574219 132.3125 C 146.109375 132.003906 145.679688 131.652344 145.285156 131.257812 C 144.890625 130.863281 144.539062 130.433594 144.230469 129.972656 C 143.917969 129.507812 143.65625 129.019531 143.445312 128.503906 C 143.230469 127.988281 143.070312 127.457031 142.960938 126.910156 C 142.851562 126.363281 142.796875 125.8125 142.796875 125.253906 C 142.796875 124.695312 142.851562 124.144531 142.960938 123.597656 C 143.070312 123.050781 143.230469 122.519531 143.445312 122.003906 C 143.65625 121.488281 143.917969 121 144.230469 120.535156 C 144.539062 120.070312 144.890625 119.644531 145.285156 119.25 C 145.679688 118.855469 146.109375 118.503906 146.574219 118.191406 C 147.039062 117.882812 147.527344 117.621094 148.042969 117.40625 C 148.558594 117.195312 149.089844 117.035156 149.636719 116.925781 C 150.183594 116.816406 150.738281 116.761719 151.292969 116.761719 C 160.257812 116.761719 162.625 122.316406 162.625 125.253906 L 156.960938 125.253906 C 156.929688 124.847656 156.507812 122.421875 151.292969 122.421875 C 150.917969 122.421875 150.558594 122.496094 150.210938 122.636719 C 149.863281 122.78125 149.558594 122.984375 149.292969 123.25 C 149.027344 123.515625 148.820312 123.824219 148.679688 124.171875 C 148.535156 124.515625 148.460938 124.878906 148.460938 125.253906 C 148.460938 125.628906 148.535156 125.988281 148.679688 126.335938 C 148.820312 126.683594 149.027344 126.988281 149.292969 127.253906 C 149.558594 127.519531 149.863281 127.726562 150.210938 127.867188 C 150.558594 128.011719 150.917969 128.082031 151.292969 128.082031 L 154.128906 128.082031 C 154.683594 128.082031 155.238281 128.136719 155.785156 128.246094 C 156.332031 128.355469 156.863281 128.515625 157.378906 128.730469 C 157.894531 128.945312 158.382812 129.207031 158.847656 129.515625 C 159.3125 129.824219 159.742188 130.175781 160.136719 130.570312 C 160.53125 130.964844 160.882812 131.394531 161.191406 131.859375 C 161.503906 132.320312 161.765625 132.8125 161.976562 133.324219 C 162.191406 133.839844 162.351562 134.371094 162.460938 134.917969 C 162.570312 135.464844 162.625 136.019531 162.625 136.574219 C 162.625 137.132812 162.570312 137.6875 162.460938 138.234375 C 162.351562 138.78125 162.191406 139.308594 161.976562 139.824219 C 161.765625 140.339844 161.503906 140.832031 161.191406 141.292969 C 160.882812 141.757812 160.53125 142.1875 160.136719 142.582031 C 159.742188 142.976562 159.3125 143.328125 158.847656 143.636719 C 158.382812 143.945312 157.894531 144.207031 157.378906 144.421875 C 156.863281 144.632812 156.332031 144.796875 155.785156 144.90625 C 155.238281 145.011719 154.683594 145.066406 154.128906 145.066406 Z M 154.128906 145.066406 " fill-opacity="1" fill-rule="nonzero"/><path fill="#08449e" d="M 158.546875 143.824219 C 158.167969 144.441406 157.714844 145.007812 157.191406 145.511719 C 156.664062 146.015625 156.085938 146.445312 155.453125 146.804688 C 154.816406 147.160156 154.148438 147.429688 153.441406 147.617188 C 152.738281 147.800781 152.023438 147.894531 151.292969 147.898438 C 142.34375 147.898438 139.964844 142.351562 139.964844 139.40625 L 143.421875 139.40625 C 144.582031 142.125 147.613281 145.066406 154.128906 145.066406 C 155.71875 145.070312 157.191406 144.652344 158.546875 143.824219 Z M 158.546875 143.824219 " fill-opacity="1" fill-rule="nonzero"/><path fill="#08449e" d="M 156.960938 136.574219 C 156.960938 136.953125 156.886719 137.3125 156.746094 137.660156 C 156.601562 138.007812 156.394531 138.3125 156.128906 138.578125 C 155.863281 138.84375 155.558594 139.046875 155.210938 139.191406 C 154.863281 139.335938 154.503906 139.40625 154.128906 139.40625 C 154.128906 139.03125 154.054688 138.671875 153.910156 138.324219 C 153.769531 137.976562 153.5625 137.671875 153.296875 137.40625 C 153.03125 137.140625 152.726562 136.933594 152.378906 136.792969 C 152.03125 136.648438 151.671875 136.574219 151.292969 136.574219 L 148.460938 136.574219 L 148.460938 136.492188 L 147.613281 136.519531 L 147.585938 136.519531 C 146.703125 136.425781 145.855469 136.199219 145.046875 135.839844 C 144.234375 135.480469 143.496094 135.007812 142.835938 134.417969 C 142.171875 133.828125 141.617188 133.148438 141.167969 132.386719 C 140.714844 131.625 140.394531 130.808594 140.199219 129.945312 C 140.003906 129.078125 139.945312 128.207031 140.023438 127.324219 C 140.101562 126.441406 140.3125 125.589844 140.660156 124.773438 C 141.003906 123.957031 141.464844 123.214844 142.042969 122.542969 C 142.621094 121.867188 143.289062 121.300781 144.042969 120.835938 C 143.652344 121.480469 143.351562 122.164062 143.140625 122.886719 C 142.929688 123.613281 142.820312 124.351562 142.804688 125.101562 C 142.792969 125.855469 142.878906 126.597656 143.0625 127.328125 C 143.246094 128.058594 143.523438 128.753906 143.890625 129.410156 C 144.261719 130.066406 144.710938 130.664062 145.238281 131.203125 C 145.765625 131.738281 146.355469 132.199219 147.003906 132.578125 C 147.65625 132.960938 148.34375 133.25 149.074219 133.449219 C 149.800781 133.644531 150.539062 133.746094 151.292969 133.746094 L 154.128906 133.746094 C 154.503906 133.746094 154.863281 133.816406 155.210938 133.960938 C 155.558594 134.105469 155.863281 134.308594 156.128906 134.574219 C 156.394531 134.839844 156.601562 135.144531 156.746094 135.492188 C 156.886719 135.839844 156.960938 136.199219 156.960938 136.574219 Z M 156.960938 136.574219 " fill-opacity="1" fill-rule="nonzero"/><path fill="#08449e" d="M 159.792969 128.082031 L 154.128906 128.082031 C 154.097656 127.6875 153.675781 125.253906 148.460938 125.253906 C 148.460938 124.878906 148.535156 124.515625 148.679688 124.171875 C 148.820312 123.824219 149.027344 123.515625 149.292969 123.25 C 149.558594 122.984375 149.863281 122.78125 150.210938 122.636719 C 150.558594 122.496094 150.917969 122.421875 151.292969 122.421875 C 156.507812 122.421875 156.929688 124.855469 156.960938 125.253906 L 159.167969 125.253906 C 159.574219 126.152344 159.78125 127.097656 159.792969 128.082031 Z M 159.792969 128.082031 " fill-opacity="1" fill-rule="nonzero"/><path fill="#ffffff" d="M 179.621094 145.066406 C 170.65625 145.066406 168.289062 139.515625 168.289062 136.574219 L 171.121094 136.574219 L 173.953125 136.492188 C 173.988281 136.980469 174.40625 139.40625 179.621094 139.40625 C 179.996094 139.40625 180.355469 139.335938 180.703125 139.191406 C 181.050781 139.046875 181.355469 138.84375 181.621094 138.578125 C 181.886719 138.3125 182.09375 138.007812 182.238281 137.660156 C 182.378906 137.3125 182.453125 136.953125 182.453125 136.574219 C 182.453125 136.199219 182.378906 135.839844 182.238281 135.492188 C 182.09375 135.144531 181.886719 134.839844 181.621094 134.574219 C 181.355469 134.308594 181.050781 134.105469 180.703125 133.960938 C 180.355469 133.816406 179.996094 133.746094 179.621094 133.746094 L 176.789062 133.746094 C 176.230469 133.746094 175.675781 133.691406 175.128906 133.582031 C 174.582031 133.472656 174.050781 133.3125 173.535156 133.097656 C 173.019531 132.886719 172.53125 132.625 172.066406 132.3125 C 171.601562 132.003906 171.171875 131.652344 170.777344 131.257812 C 170.382812 130.863281 170.03125 130.433594 169.722656 129.972656 C 169.410156 129.507812 169.148438 129.019531 168.9375 128.503906 C 168.722656 127.988281 168.5625 127.457031 168.453125 126.910156 C 168.34375 126.363281 168.289062 125.8125 168.289062 125.253906 C 168.289062 124.695312 168.34375 124.144531 168.453125 123.597656 C 168.5625 123.050781 168.722656 122.519531 168.9375 122.003906 C 169.148438 121.488281 169.410156 121 169.722656 120.535156 C 170.03125 120.070312 170.382812 119.644531 170.777344 119.25 C 171.171875 118.855469 171.601562 118.503906 172.066406 118.191406 C 172.53125 117.882812 173.019531 117.621094 173.535156 117.40625 C 174.050781 117.195312 174.582031 117.035156 175.128906 116.925781 C 175.675781 116.816406 176.230469 116.761719 176.789062 116.761719 C 185.75 116.761719 188.117188 122.316406 188.117188 125.253906 L 182.453125 125.253906 C 182.421875 124.847656 182.003906 122.421875 176.789062 122.421875 C 176.410156 122.421875 176.050781 122.496094 175.703125 122.636719 C 175.355469 122.78125 175.050781 122.984375 174.785156 123.25 C 174.519531 123.515625 174.3125 123.824219 174.171875 124.171875 C 174.027344 124.515625 173.953125 124.878906 173.953125 125.253906 C 173.953125 125.628906 174.027344 125.988281 174.171875 126.335938 C 174.3125 126.683594 174.519531 126.988281 174.785156 127.253906 C 175.050781 127.519531 175.355469 127.726562 175.703125 127.867188 C 176.050781 128.011719 176.410156 128.082031 176.789062 128.082031 L 179.621094 128.082031 C 180.179688 128.082031 180.730469 128.136719 181.277344 128.246094 C 181.824219 128.355469 182.355469 128.515625 182.871094 128.730469 C 183.386719 128.945312 183.878906 129.207031 184.339844 129.515625 C 184.804688 129.824219 185.234375 130.175781 185.628906 130.570312 C 186.023438 130.964844 186.375 131.394531 186.683594 131.859375 C 186.996094 132.320312 187.257812 132.8125 187.472656 133.324219 C 187.683594 133.839844 187.84375 134.371094 187.953125 134.917969 C 188.0625 135.464844 188.117188 136.019531 188.117188 136.574219 C 188.117188 137.132812 188.0625 137.6875 187.953125 138.234375 C 187.84375 138.78125 187.683594 139.308594 187.472656 139.824219 C 187.257812 140.339844 186.996094 140.832031 186.683594 141.292969 C 186.375 141.757812 186.023438 142.1875 185.628906 142.582031 C 185.234375 142.976562 184.804688 143.328125 184.339844 143.636719 C 183.878906 143.945312 183.386719 144.207031 182.871094 144.421875 C 182.355469 144.632812 181.824219 144.796875 181.277344 144.90625 C 180.730469 145.011719 180.179688 145.066406 179.621094 145.066406 Z M 179.621094 145.066406 " fill-opacity="1" fill-rule="nonzero"/><path fill="#08449e" d="M 184.039062 143.824219 C 183.660156 144.441406 183.207031 145.007812 182.683594 145.511719 C 182.15625 146.015625 181.578125 146.445312 180.945312 146.804688 C 180.308594 147.160156 179.640625 147.429688 178.9375 147.617188 C 178.230469 147.800781 177.515625 147.894531 176.789062 147.898438 C 167.835938 147.898438 165.457031 142.351562 165.457031 139.40625 L 168.914062 139.40625 C 170.074219 142.125 173.105469 145.066406 179.621094 145.066406 C 181.210938 145.070312 182.683594 144.652344 184.039062 143.824219 Z M 184.039062 143.824219 " fill-opacity="1" fill-rule="nonzero"/><path fill="#08449e" d="M 182.453125 136.574219 C 182.453125 136.953125 182.378906 137.3125 182.238281 137.660156 C 182.09375 138.007812 181.886719 138.3125 181.621094 138.578125 C 181.355469 138.84375 181.050781 139.046875 180.703125 139.191406 C 180.355469 139.335938 179.996094 139.40625 179.621094 139.40625 C 179.621094 139.03125 179.546875 138.671875 179.40625 138.324219 C 179.261719 137.976562 179.054688 137.671875 178.789062 137.40625 C 178.523438 137.140625 178.21875 136.933594 177.871094 136.792969 C 177.523438 136.648438 177.164062 136.574219 176.789062 136.574219 L 173.953125 136.574219 L 173.953125 136.492188 L 173.105469 136.519531 L 173.078125 136.519531 C 172.195312 136.425781 171.347656 136.199219 170.539062 135.839844 C 169.726562 135.480469 168.992188 135.007812 168.328125 134.417969 C 167.664062 133.828125 167.109375 133.148438 166.660156 132.386719 C 166.210938 131.625 165.886719 130.808594 165.691406 129.945312 C 165.496094 129.078125 165.4375 128.207031 165.515625 127.324219 C 165.59375 126.441406 165.804688 125.589844 166.152344 124.773438 C 166.496094 123.957031 166.957031 123.214844 167.535156 122.542969 C 168.113281 121.867188 168.78125 121.300781 169.535156 120.835938 C 169.144531 121.480469 168.84375 122.164062 168.632812 122.886719 C 168.421875 123.613281 168.3125 124.351562 168.296875 125.101562 C 168.285156 125.855469 168.371094 126.597656 168.554688 127.328125 C 168.738281 128.058594 169.015625 128.753906 169.386719 129.410156 C 169.753906 130.066406 170.203125 130.664062 170.730469 131.203125 C 171.257812 131.738281 171.847656 132.199219 172.5 132.578125 C 173.148438 132.960938 173.839844 133.25 174.566406 133.449219 C 175.292969 133.644531 176.035156 133.746094 176.789062 133.746094 L 179.621094 133.746094 C 179.996094 133.746094 180.355469 133.816406 180.703125 133.960938 C 181.050781 134.105469 181.355469 134.308594 181.621094 134.574219 C 181.886719 134.839844 182.09375 135.144531 182.238281 135.492188 C 182.378906 135.839844 182.453125 136.199219 182.453125 136.574219 Z M 182.453125 136.574219 " fill-opacity="1" fill-rule="nonzero"/><path fill="#08449e" d="M 185.285156 128.082031 L 179.621094 128.082031 C 179.589844 127.6875 179.167969 125.253906 173.953125 125.253906 C 173.953125 124.878906 174.027344 124.515625 174.171875 124.171875 C 174.3125 123.824219 174.519531 123.515625 174.785156 123.25 C 175.050781 122.984375 175.355469 122.78125 175.703125 122.636719 C 176.050781 122.496094 176.410156 122.421875 176.789062 122.421875 C 182 122.421875 182.425781 124.855469 182.453125 125.253906 L 184.660156 125.253906 C 185.066406 126.152344 185.273438 127.097656 185.285156 128.082031 Z M 185.285156 128.082031 " fill-opacity="1" fill-rule="nonzero"/><path fill="#f2f2f2" d="M 137.132812 145.066406 L 134.300781 145.066406 C 133.371094 145.066406 132.449219 144.976562 131.535156 144.796875 C 130.625 144.613281 129.738281 144.347656 128.878906 143.992188 C 128.019531 143.636719 127.203125 143.199219 126.429688 142.683594 C 125.65625 142.167969 124.941406 141.578125 124.285156 140.921875 C 123.628906 140.265625 123.039062 139.550781 122.523438 138.777344 C 122.007812 138.003906 121.570312 137.1875 121.214844 136.332031 C 120.859375 135.472656 120.589844 134.585938 120.410156 133.675781 C 120.226562 132.765625 120.136719 131.84375 120.136719 130.914062 C 120.136719 129.984375 120.226562 129.066406 120.410156 128.152344 C 120.589844 127.242188 120.859375 126.355469 121.214844 125.5 C 121.570312 124.640625 122.007812 123.824219 122.523438 123.050781 C 123.039062 122.277344 123.628906 121.5625 124.285156 120.90625 C 124.941406 120.25 125.65625 119.664062 126.429688 119.148438 C 127.203125 118.628906 128.019531 118.195312 128.878906 117.839844 C 129.738281 117.484375 130.625 117.214844 131.535156 117.035156 C 132.449219 116.851562 133.371094 116.761719 134.300781 116.761719 L 137.132812 116.761719 L 137.132812 122.421875 L 134.300781 122.421875 C 133.742188 122.421875 133.1875 122.476562 132.640625 122.585938 C 132.09375 122.695312 131.5625 122.855469 131.046875 123.070312 C 130.53125 123.28125 130.042969 123.542969 129.578125 123.855469 C 129.113281 124.164062 128.6875 124.515625 128.289062 124.910156 C 127.894531 125.304688 127.542969 125.734375 127.234375 126.195312 C 126.925781 126.660156 126.664062 127.148438 126.449219 127.664062 C 126.234375 128.179688 126.074219 128.710938 125.964844 129.257812 C 125.855469 129.804688 125.800781 130.355469 125.800781 130.914062 C 125.800781 131.472656 125.855469 132.023438 125.964844 132.570312 C 126.074219 133.117188 126.234375 133.648438 126.449219 134.164062 C 126.664062 134.679688 126.925781 135.167969 127.234375 135.632812 C 127.542969 136.097656 127.894531 136.523438 128.289062 136.917969 C 128.6875 137.3125 129.113281 137.664062 129.578125 137.976562 C 130.042969 138.285156 130.53125 138.546875 131.046875 138.761719 C 131.5625 138.972656 132.09375 139.132812 132.640625 139.242188 C 133.1875 139.351562 133.742188 139.40625 134.300781 139.40625 L 137.132812 139.40625 Z M 137.132812 145.066406 " fill-opacity="1" fill-rule="nonzero"/><path fill="#08449e" d="M 134.300781 145.066406 L 134.300781 147.898438 L 131.46875 147.898438 C 130.730469 147.898438 129.996094 147.839844 129.265625 147.726562 C 128.535156 147.613281 127.820312 147.441406 127.117188 147.214844 C 126.414062 146.988281 125.734375 146.707031 125.074219 146.375 C 124.414062 146.039062 123.785156 145.660156 123.1875 145.226562 C 122.585938 144.796875 122.023438 144.320312 121.5 143.800781 C 120.976562 143.28125 120.496094 142.722656 120.058594 142.128906 C 119.621094 141.535156 119.230469 140.910156 118.890625 140.253906 C 118.550781 139.597656 118.265625 138.921875 118.03125 138.222656 C 117.796875 137.519531 117.621094 136.804688 117.5 136.078125 C 117.375 135.351562 117.3125 134.617188 117.304688 133.878906 C 117.296875 133.140625 117.347656 132.40625 117.457031 131.675781 C 117.566406 130.945312 117.730469 130.230469 117.949219 129.523438 C 118.167969 128.820312 118.441406 128.136719 118.769531 127.476562 C 119.097656 126.8125 119.472656 126.183594 119.898438 125.578125 C 120.324219 124.976562 120.796875 124.410156 121.3125 123.878906 C 121.824219 123.351562 122.378906 122.867188 122.96875 122.421875 C 122.042969 123.644531 121.339844 124.984375 120.855469 126.4375 C 120.371094 127.890625 120.132812 129.382812 120.136719 130.914062 C 120.136719 131.84375 120.226562 132.765625 120.410156 133.675781 C 120.589844 134.585938 120.859375 135.472656 121.214844 136.332031 C 121.570312 137.1875 122.007812 138.003906 122.523438 138.777344 C 123.039062 139.550781 123.628906 140.265625 124.285156 140.921875 C 124.941406 141.578125 125.65625 142.167969 126.429688 142.683594 C 127.203125 143.199219 128.019531 143.636719 128.878906 143.992188 C 129.738281 144.347656 130.625 144.613281 131.535156 144.796875 C 132.449219 144.976562 133.371094 145.066406 134.300781 145.066406 Z M 134.300781 145.066406 " fill-opacity="1" fill-rule="nonzero"/><path fill="#08449e" d="M 134.300781 122.421875 L 134.300781 125.253906 L 131.46875 125.253906 C 129.875 125.253906 128.402344 125.667969 127.046875 126.5 C 127.429688 125.878906 127.878906 125.316406 128.40625 124.808594 C 128.929688 124.304688 129.507812 123.875 130.144531 123.515625 C 130.777344 123.160156 131.445312 122.890625 132.152344 122.703125 C 132.855469 122.519531 133.570312 122.425781 134.300781 122.421875 Z M 134.300781 122.421875 " fill-opacity="1" fill-rule="nonzero"/></svg>