<svg xmlns="http://www.w3.org/2000/svg" xmlns:xlink="http://www.w3.org/1999/xlink" width="500" zoomAndPan="magnify" viewBox="0 0 375 374.999991" height="500" preserveAspectRatio="xMidYMid meet" version="1.0"><defs><clipPath id="cf0af0f7ba"><path d="M 134.316406 141 L 240.816406 141 L 240.816406 262.5 L 134.316406 262.5 Z M 134.316406 141 " clip-rule="nonzero"/></clipPath><clipPath id="b8a854fbd8"><path d="M 144 112.5 L 165 112.5 L 165 133 L 144 133 Z M 144 112.5 " clip-rule="nonzero"/></clipPath><clipPath id="0f16809789"><path d="M 166 112.5 L 186 112.5 L 186 133 L 166 133 Z M 166 112.5 " clip-rule="nonzero"/></clipPath><clipPath id="d8f52f0783"><path d="M 188 112.5 L 212 112.5 L 212 133 L 188 133 Z M 188 112.5 " clip-rule="nonzero"/></clipPath><clipPath id="98000733b8"><path d="M 214 112.5 L 232 112.5 L 232 133 L 214 133 Z M 214 112.5 " clip-rule="nonzero"/></clipPath></defs><rect x="-37.5" width="450" fill="#ffffff" y="-37.499999" height="449.999989" fill-opacity="1"/><rect x="-37.5" width="450" fill="#ffffff" y="-37.499999" height="449.999989" fill-opacity="1"/><g clip-path="url(#cf0af0f7ba)"><path fill="#e44d26" d="M 240.789062 141.976562 L 231.097656 250.429688 L 187.523438 262.492188 L 144.070312 250.449219 L 134.386719 141.976562 L 240.792969 141.976562 Z M 240.789062 141.976562 " fill-opacity="1" fill-rule="nonzero"/></g><path fill="#f16529" d="M 187.589844 253.273438 L 222.800781 243.527344 L 231.085938 150.847656 L 187.589844 150.847656 Z M 187.589844 253.273438 " fill-opacity="1" fill-rule="nonzero"/><path fill="#ebebeb" d="M 168.746094 177.453125 L 187.589844 177.453125 L 187.589844 164.148438 L 154.1875 164.148438 L 154.503906 167.71875 L 157.777344 204.378906 L 187.589844 204.378906 L 187.589844 191.078125 L 169.960938 191.078125 Z M 168.746094 177.453125 " fill-opacity="1" fill-rule="nonzero"/><path fill="#ebebeb" d="M 171.746094 211.03125 L 158.375 211.03125 L 160.242188 231.921875 L 187.527344 239.484375 L 187.589844 239.46875 L 187.589844 225.625 L 187.53125 225.644531 L 172.695312 221.640625 Z M 171.746094 211.03125 " fill-opacity="1" fill-rule="nonzero"/><g clip-path="url(#b8a854fbd8)"><path fill="#000000" d="M 144.285156 112.5 L 151.054688 112.5 L 151.054688 119.179688 L 157.246094 119.179688 L 157.246094 112.5 L 164.019531 112.5 L 164.019531 132.726562 L 157.25 132.726562 L 157.25 125.953125 L 151.054688 125.953125 L 151.054688 132.726562 L 144.285156 132.726562 Z M 144.285156 112.5 " fill-opacity="1" fill-rule="nonzero"/></g><g clip-path="url(#0f16809789)"><path fill="#000000" d="M 172.921875 119.207031 L 166.960938 119.207031 L 166.960938 112.5 L 185.652344 112.5 L 185.652344 119.207031 L 179.6875 119.207031 L 179.6875 132.726562 L 172.921875 132.726562 Z M 172.921875 119.207031 " fill-opacity="1" fill-rule="nonzero"/></g><g clip-path="url(#d8f52f0783)"><path fill="#000000" d="M 188.621094 112.5 L 195.675781 112.5 L 200.019531 119.605469 L 204.355469 112.5 L 211.417969 112.5 L 211.417969 132.726562 L 204.675781 132.726562 L 204.675781 122.703125 L 200.019531 129.894531 L 199.902344 129.894531 L 195.242188 122.703125 L 195.242188 132.726562 L 188.621094 132.726562 Z M 188.621094 112.5 " fill-opacity="1" fill-rule="nonzero"/></g><g clip-path="url(#98000733b8)"><path fill="#000000" d="M 214.789062 112.5 L 221.558594 112.5 L 221.558594 126.042969 L 231.082031 126.042969 L 231.082031 132.726562 L 214.789062 132.726562 Z M 214.789062 112.5 " fill-opacity="1" fill-rule="nonzero"/></g><path fill="#ffffff" d="M 187.542969 204.378906 L 203.949219 204.378906 L 202.398438 221.632812 L 187.542969 225.640625 L 187.542969 239.476562 L 214.851562 231.921875 L 215.050781 229.671875 L 218.183594 194.648438 L 218.507812 191.078125 L 187.542969 191.078125 Z M 187.542969 204.378906 " fill-opacity="1" fill-rule="nonzero"/><path fill="#ffffff" d="M 187.542969 177.417969 L 187.542969 177.453125 L 219.71875 177.453125 L 219.984375 174.460938 L 220.59375 167.71875 L 220.910156 164.148438 L 187.542969 164.148438 Z M 187.542969 177.417969 " fill-opacity="1" fill-rule="nonzero"/></svg>