<svg xmlns="http://www.w3.org/2000/svg" xmlns:xlink="http://www.w3.org/1999/xlink" width="500" zoomAndPan="magnify" viewBox="0 0 375 374.999991" height="500" preserveAspectRatio="xMidYMid meet" version="1.0"><defs><clipPath id="b7d7537ce9"><path d="M 105 112.5 L 275.1875 112.5 L 275.1875 282.75 L 105 282.75 Z M 105 112.5 " clip-rule="nonzero"/></clipPath><clipPath id="7f6c0cb814"><path d="M 105 112.5 L 191 112.5 L 191 282.75 L 105 282.75 Z M 105 112.5 " clip-rule="nonzero"/></clipPath></defs><rect x="-37.5" width="450" fill="#ffffff" y="-37.499999" height="449.999989" fill-opacity="1"/><rect x="-37.5" width="450" fill="#ffffff" y="-37.499999" height="449.999989" fill-opacity="1"/><g clip-path="url(#b7d7537ce9)"><path fill="#ffc44d" d="M 111.273438 112.105469 C 109.570312 112.105469 107.949219 112.835938 106.820312 114.113281 C 105.695312 115.390625 105.167969 117.089844 105.378906 118.78125 L 121.21875 245.476562 C 121.464844 247.449219 122.679688 249.164062 124.453125 250.050781 L 187.804688 281.726562 C 189.476562 282.5625 191.445312 282.5625 193.113281 281.726562 L 256.464844 250.050781 C 258.238281 249.164062 259.453125 247.449219 259.699219 245.476562 L 275.539062 118.78125 C 275.75 117.089844 275.226562 115.390625 274.097656 114.113281 C 272.96875 112.835938 271.347656 112.105469 269.644531 112.105469 Z M 111.273438 112.105469 " fill-opacity="1" fill-rule="nonzero"/></g><g clip-path="url(#7f6c0cb814)"><path fill="#e5b045" d="M 190.460938 112.105469 L 190.460938 282.355469 C 189.550781 282.355469 188.640625 282.144531 187.804688 281.726562 L 124.453125 250.050781 C 122.679688 249.164062 121.464844 247.449219 121.21875 245.476562 L 105.378906 118.78125 C 105.167969 117.089844 105.695312 115.390625 106.820312 114.113281 C 107.949219 112.835938 109.570312 112.105469 111.273438 112.105469 Z M 190.460938 112.105469 " fill-opacity="1" fill-rule="evenodd"/></g><path fill="#cfd8dc" d="M 178.582031 135.859375 C 181.863281 135.859375 184.519531 138.519531 184.519531 141.796875 L 184.519531 244.742188 C 184.519531 246.859375 183.394531 248.816406 181.5625 249.878906 C 179.730469 250.941406 177.472656 250.949219 175.636719 249.898438 L 147.921875 234.058594 C 145.074219 232.433594 144.082031 228.804688 145.710938 225.957031 C 147.339844 223.109375 150.964844 222.121094 153.8125 223.746094 L 172.644531 234.507812 L 172.644531 141.796875 C 172.644531 138.519531 175.300781 135.859375 178.582031 135.859375 Z M 178.582031 135.859375 " fill-opacity="1" fill-rule="evenodd"/><path fill="#eceff1" d="M 196.398438 141.796875 C 196.398438 138.519531 199.058594 135.859375 202.339844 135.859375 L 241.933594 135.859375 C 245.210938 135.859375 247.871094 138.519531 247.871094 141.796875 C 247.871094 145.078125 245.210938 147.738281 241.933594 147.738281 L 208.277344 147.738281 L 208.277344 185.867188 L 236.683594 179.554688 C 238.535156 179.140625 240.472656 179.640625 241.894531 180.890625 C 243.316406 182.144531 244.058594 184 243.886719 185.890625 L 239.925781 229.441406 C 239.742188 231.488281 238.507812 233.296875 236.667969 234.214844 L 204.996094 250.050781 C 202.0625 251.519531 198.492188 250.332031 197.027344 247.398438 C 195.558594 244.460938 196.75 240.894531 199.683594 239.429688 L 228.398438 225.070312 L 231.320312 192.914062 L 203.628906 199.066406 C 201.867188 199.457031 200.027344 199.03125 198.621094 197.902344 C 197.21875 196.773438 196.398438 195.070312 196.398438 193.269531 Z M 196.398438 141.796875 " fill-opacity="1" fill-rule="evenodd"/></svg>