<svg xmlns="http://www.w3.org/2000/svg" xmlns:xlink="http://www.w3.org/1999/xlink" width="500" zoomAndPan="magnify" viewBox="0 0 375 374.999991" height="500" preserveAspectRatio="xMidYMid meet" version="1.0"><defs><clipPath id="1f2759e009"><path d="M 161 244 L 198 244 L 198 278.390625 L 161 278.390625 Z M 161 244 " clip-rule="nonzero"/></clipPath><clipPath id="62dbaaa022"><path d="M 71.796875 149 L 154 149 L 154 238 L 71.796875 238 Z M 71.796875 149 " clip-rule="nonzero"/></clipPath><clipPath id="cc2da17f81"><path d="M 166 68 L 286.296875 68 L 286.296875 188 L 166 188 Z M 166 68 " clip-rule="nonzero"/></clipPath></defs><rect x="-37.5" width="450" fill="#ffffff" y="-37.499999" height="449.999989" fill-opacity="1"/><rect x="-37.5" width="450" fill="#ffffff" y="-37.499999" height="449.999989" fill-opacity="1"/><g clip-path="url(#1f2759e009)"><path fill="#ebebeb" d="M 161.203125 266.984375 C 161.203125 273.078125 166.144531 278.019531 172.242188 278.019531 L 186.957031 278.019531 C 193.054688 278.019531 197.996094 273.078125 197.996094 266.984375 L 197.996094 244.90625 L 161.203125 244.90625 Z M 161.203125 266.984375 " fill-opacity="1" fill-rule="nonzero"/></g><g clip-path="url(#62dbaaa022)"><path fill="#c9dfff" d="M 143.867188 205.015625 C 140.636719 202.9375 137.613281 200.582031 134.800781 197.988281 C 132.75 205.914062 125.617188 211.792969 117.050781 211.792969 C 106.894531 211.792969 98.65625 203.558594 98.65625 193.398438 C 98.65625 183.238281 106.894531 175.003906 117.050781 175.003906 C 117.617188 175.003906 118.144531 175.121094 118.695312 175.167969 C 115.308594 167.203125 113.410156 158.449219 113.410156 149.246094 L 108.722656 149.246094 L 106.179688 161.339844 C 105.640625 163.914062 102.65625 165.105469 100.492188 163.613281 L 90.332031 156.605469 L 79.292969 167.644531 L 86.300781 177.808594 C 87.792969 179.972656 86.597656 182.957031 84.027344 183.496094 L 71.933594 186.039062 L 71.933594 200.757812 L 84.027344 203.300781 C 86.597656 203.839844 87.792969 206.824219 86.300781 208.988281 L 79.292969 219.152344 L 90.332031 230.191406 L 100.496094 223.183594 C 102.660156 221.691406 105.644531 222.882812 106.183594 225.457031 L 108.726562 237.550781 L 123.445312 237.550781 L 125.984375 225.457031 C 126.527344 222.882812 129.511719 221.691406 131.675781 223.183594 L 141.839844 230.191406 L 153.390625 218.640625 C 152.238281 213.0625 148.789062 208.175781 143.867188 205.015625 Z M 143.867188 205.015625 " fill-opacity="1" fill-rule="nonzero"/></g><path fill="#ffb41f" d="M 245.824219 149.246094 C 245.824219 110.1875 212.011719 79.023438 172.058594 83.4375 C 141.289062 86.835938 116.589844 111.984375 113.679688 142.804688 C 111.21875 168.855469 123.859375 192.167969 143.867188 205.015625 C 149.953125 208.921875 153.84375 215.453125 153.84375 222.679688 L 153.84375 237.550781 C 153.84375 243.644531 158.785156 248.585938 164.882812 248.585938 L 194.316406 248.585938 C 200.414062 248.585938 205.355469 243.644531 205.355469 237.550781 L 205.355469 222.988281 C 205.355469 215.585938 209.332031 208.902344 215.546875 204.878906 C 233.769531 193.078125 245.824219 172.574219 245.824219 149.246094 Z M 245.824219 149.246094 " fill-opacity="1" fill-rule="nonzero"/><g clip-path="url(#cc2da17f81)"><path fill="#1cc8eb" d="M 268.613281 110.324219 L 280.175781 101.652344 L 266.929688 83.992188 L 255.367188 92.664062 C 250.125 96.597656 242.738281 92.226562 243.667969 85.734375 L 245.710938 71.425781 L 223.855469 68.304688 L 221.8125 82.613281 C 220.882812 89.101562 212.574219 91.234375 208.640625 85.988281 L 199.96875 74.421875 L 182.308594 87.667969 L 190.980469 99.230469 C 194.914062 104.476562 190.542969 111.859375 184.050781 110.933594 L 169.742188 108.886719 L 166.621094 130.742188 L 180.929688 132.785156 C 187.417969 133.714844 189.546875 142.023438 184.300781 145.957031 L 172.738281 154.628906 L 185.984375 172.289062 L 197.546875 163.617188 C 202.789062 159.683594 210.175781 164.054688 209.246094 170.546875 L 207.203125 184.855469 L 229.054688 187.980469 L 231.101562 173.671875 C 232.027344 167.179688 240.339844 165.050781 244.273438 170.296875 L 252.945312 181.859375 L 270.605469 168.613281 L 261.933594 157.050781 C 258 151.808594 262.371094 144.425781 268.863281 145.351562 L 283.171875 147.398438 L 286.296875 125.539062 L 271.988281 123.492188 C 265.5 122.570312 263.367188 114.257812 268.613281 110.324219 Z M 226.460938 153.894531 C 212.238281 153.894531 200.707031 142.363281 200.707031 128.140625 C 200.707031 113.914062 212.238281 102.386719 226.460938 102.386719 C 240.6875 102.386719 252.21875 113.914062 252.21875 128.140625 C 252.21875 142.363281 240.6875 153.894531 226.460938 153.894531 Z M 226.460938 153.894531 " fill-opacity="1" fill-rule="nonzero"/></g><path fill="#9e9e9e" d="M 161.203125 255.945312 L 197.996094 255.945312 L 197.996094 263.304688 L 161.203125 263.304688 Z M 161.203125 255.945312 " fill-opacity="1" fill-rule="nonzero"/><path fill="#ffaa00" d="M 175.921875 226.511719 L 183.277344 226.511719 L 183.277344 237.550781 L 175.921875 237.550781 Z M 175.921875 226.511719 " fill-opacity="1" fill-rule="nonzero"/><path fill="#ffaa00" d="M 183.277344 219.152344 L 175.921875 219.152344 C 175.921875 209.425781 169.992188 200.824219 160.820312 197.226562 C 140.9375 189.441406 128.089844 170.605469 128.089844 149.246094 C 128.089844 131.460938 137.078125 115.171875 152.132812 105.664062 L 156.0625 111.882812 C 143.15625 120.039062 135.449219 134 135.449219 149.246094 C 135.449219 167.554688 146.460938 183.695312 163.507812 190.378906 C 175.519531 195.078125 183.277344 206.375 183.277344 219.152344 Z M 183.277344 219.152344 " fill-opacity="1" fill-rule="nonzero"/><path fill="#ffaa00" d="M 271.582031 208.117188 L 253.183594 208.117188 C 251.152344 208.117188 249.503906 206.46875 249.503906 204.4375 C 249.503906 202.40625 251.148438 200.757812 253.183594 200.757812 L 271.582031 200.757812 C 273.613281 200.757812 275.261719 202.402344 275.261719 204.4375 C 275.261719 206.46875 273.617188 208.117188 271.582031 208.117188 Z M 271.582031 208.117188 " fill-opacity="1" fill-rule="nonzero"/><path fill="#ffaa00" d="M 262.722656 241.695312 L 246.296875 228.011719 C 244.738281 226.714844 244.527344 224.394531 245.824219 222.835938 L 245.824219 222.832031 C 247.125 221.273438 249.445312 221.058594 251.007812 222.359375 L 267.429688 236.039062 C 268.992188 237.339844 269.199219 239.65625 267.902344 241.21875 L 267.902344 241.226562 C 266.601562 242.785156 264.28125 243 262.722656 241.695312 Z M 262.722656 241.695312 " fill-opacity="1" fill-rule="nonzero"/><path fill="#ffaa00" d="M 231.109375 255.945312 C 229.074219 255.945312 227.429688 254.300781 227.429688 252.265625 L 227.429688 233.871094 C 227.429688 231.839844 229.074219 230.191406 231.109375 230.191406 C 233.140625 230.191406 234.789062 231.835938 234.789062 233.871094 L 234.789062 252.265625 C 234.789062 254.300781 233.144531 255.945312 231.109375 255.945312 Z M 231.109375 255.945312 " fill-opacity="1" fill-rule="nonzero"/><path fill="#ffaa00" d="M 72.902344 130.851562 C 72.410156 128.882812 73.609375 126.886719 75.578125 126.390625 L 97.875 120.816406 C 99.847656 120.324219 101.84375 121.523438 102.335938 123.492188 C 102.828125 125.460938 101.628906 127.457031 99.660156 127.953125 L 77.359375 133.527344 C 75.390625 134.019531 73.394531 132.820312 72.902344 130.851562 Z M 72.902344 130.851562 " fill-opacity="1" fill-rule="nonzero"/><path fill="#ffaa00" d="M 100.886719 105.953125 L 81.113281 91.828125 C 79.460938 90.652344 79.078125 88.351562 80.261719 86.699219 C 81.441406 85.046875 83.738281 84.664062 85.390625 85.847656 L 105.15625 99.96875 C 106.8125 101.144531 107.195312 103.445312 106.015625 105.097656 C 104.832031 106.75 102.539062 107.132812 100.886719 105.953125 Z M 100.886719 105.953125 " fill-opacity="1" fill-rule="nonzero"/><path fill="#ffaa00" d="M 116.257812 91.40625 L 110.554688 69.097656 C 110.050781 67.128906 111.238281 65.128906 113.203125 64.625 L 113.207031 64.625 C 115.175781 64.121094 117.179688 65.308594 117.683594 67.277344 L 123.382812 89.585938 C 123.886719 91.554688 122.699219 93.554688 120.734375 94.058594 L 120.730469 94.058594 C 118.761719 94.5625 116.757812 93.375 116.257812 91.40625 Z M 116.257812 91.40625 " fill-opacity="1" fill-rule="nonzero"/></svg>