<svg xmlns="http://www.w3.org/2000/svg" xmlns:xlink="http://www.w3.org/1999/xlink" width="500" zoomAndPan="magnify" viewBox="0 0 375 374.999991" height="500" preserveAspectRatio="xMidYMid meet" version="1.0"><defs><clipPath id="53ba475572"><path d="M 123.277344 249 L 273.277344 249 L 273.277344 250 L 123.277344 250 Z M 123.277344 249 " clip-rule="nonzero"/></clipPath></defs><rect x="-37.5" width="450" fill="#ffffff" y="-37.499999" height="449.999989" fill-opacity="1"/><rect x="-37.5" width="450" fill="#ffffff" y="-37.499999" height="449.999989" fill-opacity="1"/><path fill="#61dafb" d="M 198.28125 218.519531 C 181.703125 218.519531 166.109375 216.054688 154.375 211.582031 C 142.480469 207.046875 135.933594 200.957031 135.933594 194.433594 C 135.933594 187.910156 142.480469 181.820312 154.375 177.289062 C 166.109375 172.8125 181.703125 170.351562 198.28125 170.351562 C 214.859375 170.351562 230.453125 172.8125 242.1875 177.289062 C 254.082031 181.820312 260.628906 187.910156 260.628906 194.433594 C 260.628906 200.957031 254.082031 207.046875 242.1875 211.582031 C 230.453125 216.054688 214.859375 218.519531 198.28125 218.519531 Z M 198.28125 171.378906 C 181.824219 171.378906 166.363281 173.816406 154.742188 178.246094 C 143.277344 182.617188 136.960938 188.367188 136.960938 194.433594 C 136.960938 200.5 143.277344 206.25 154.742188 210.621094 C 166.363281 215.050781 181.824219 217.492188 198.28125 217.492188 C 214.738281 217.492188 230.199219 215.050781 241.820312 210.621094 C 253.285156 206.25 259.601562 200.5 259.601562 194.433594 C 259.601562 188.367188 253.285156 182.617188 241.820312 178.246094 C 230.199219 173.816406 214.738281 171.378906 198.28125 171.378906 Z M 198.28125 171.378906 " fill-opacity="1" fill-rule="nonzero"/><path fill="#61dafb" d="M 224.042969 249.707031 C 218.890625 249.707031 212.46875 246.734375 205.359375 240.96875 C 195.613281 233.058594 185.679688 220.808594 177.390625 206.476562 C 169.101562 192.144531 163.441406 177.429688 161.453125 165.046875 C 159.441406 152.496094 161.445312 143.789062 167.105469 140.527344 C 172.765625 137.265625 181.324219 139.882812 191.203125 147.898438 C 200.949219 155.808594 210.882812 168.058594 219.171875 182.390625 C 227.460938 196.726562 233.121094 211.4375 235.109375 223.824219 C 237.121094 236.371094 235.113281 245.078125 229.457031 248.339844 C 227.867188 249.257812 226.050781 249.707031 224.042969 249.707031 Z M 172.546875 140.179688 C 170.710938 140.179688 169.058594 140.589844 167.621094 141.417969 C 162.359375 144.449219 160.527344 152.785156 162.46875 164.882812 C 164.4375 177.144531 170.050781 191.734375 178.28125 205.960938 C 186.507812 220.191406 196.355469 232.339844 206.007812 240.171875 C 215.535156 247.898438 223.675781 250.484375 228.941406 247.449219 C 234.203125 244.417969 236.035156 236.082031 234.09375 223.984375 C 232.125 211.722656 226.507812 197.132812 218.28125 182.90625 C 210.054688 168.679688 200.207031 156.53125 190.550781 148.695312 C 183.628906 143.078125 177.4375 140.179688 172.546875 140.179688 Z M 172.546875 140.179688 " fill-opacity="1" fill-rule="nonzero"/><path fill="#61dafb" d="M 172.519531 249.707031 C 170.511719 249.707031 168.695312 249.257812 167.105469 248.339844 C 161.445312 245.078125 159.441406 236.371094 161.453125 223.824219 C 163.441406 211.4375 169.101562 196.726562 177.390625 182.390625 C 185.679688 168.058594 195.613281 155.808594 205.359375 147.898438 C 215.238281 139.882812 223.796875 137.265625 229.457031 140.527344 C 235.113281 143.789062 237.121094 152.496094 235.109375 165.046875 C 233.121094 177.429688 227.460938 192.144531 219.171875 206.476562 C 210.882812 220.808594 200.949219 233.058594 191.203125 240.96875 C 184.09375 246.734375 177.671875 249.707031 172.519531 249.707031 Z M 224.015625 140.179688 C 219.125 140.179688 212.933594 143.078125 206.007812 148.695312 C 196.355469 156.53125 186.507812 168.679688 178.28125 182.90625 C 170.050781 197.132812 164.4375 211.722656 162.46875 223.984375 C 160.527344 236.082031 162.359375 244.417969 167.621094 247.449219 C 169.058594 248.28125 170.710938 248.6875 172.546875 248.6875 C 177.4375 248.691406 183.628906 245.789062 190.550781 240.171875 C 200.207031 232.339844 210.054688 220.191406 218.28125 205.960938 C 226.507812 191.734375 232.125 177.144531 234.09375 164.882812 C 236.035156 152.785156 234.203125 144.449219 228.941406 141.417969 C 227.503906 140.589844 225.851562 140.179688 224.015625 140.179688 Z M 224.015625 140.179688 " fill-opacity="1" fill-rule="nonzero"/><path fill="#61dafb" d="M 209.804688 194.433594 C 209.804688 195.1875 209.730469 195.9375 209.582031 196.679688 C 209.4375 197.417969 209.21875 198.140625 208.925781 198.835938 C 208.636719 199.535156 208.28125 200.199219 207.863281 200.824219 C 207.441406 201.453125 206.964844 202.035156 206.429688 202.570312 C 205.894531 203.101562 205.3125 203.582031 204.683594 204 C 204.054688 204.417969 203.390625 204.773438 202.691406 205.0625 C 201.992188 205.351562 201.269531 205.570312 200.527344 205.71875 C 199.785156 205.863281 199.039062 205.9375 198.28125 205.9375 C 197.523438 205.9375 196.773438 205.863281 196.03125 205.71875 C 195.289062 205.570312 194.570312 205.351562 193.871094 205.0625 C 193.171875 204.773438 192.507812 204.417969 191.878906 204 C 191.25 203.582031 190.667969 203.101562 190.132812 202.570312 C 189.597656 202.035156 189.121094 201.453125 188.699219 200.824219 C 188.277344 200.199219 187.925781 199.535156 187.632812 198.835938 C 187.34375 198.140625 187.125 197.417969 186.980469 196.679688 C 186.832031 195.9375 186.757812 195.1875 186.757812 194.433594 C 186.757812 193.679688 186.832031 192.929688 186.980469 192.191406 C 187.125 191.449219 187.34375 190.730469 187.632812 190.03125 C 187.925781 189.332031 188.277344 188.671875 188.699219 188.042969 C 189.121094 187.414062 189.597656 186.832031 190.132812 186.300781 C 190.667969 185.765625 191.25 185.289062 191.878906 184.867188 C 192.507812 184.449219 193.171875 184.09375 193.871094 183.804688 C 194.570312 183.515625 195.289062 183.296875 196.03125 183.148438 C 196.773438 183.003906 197.523438 182.929688 198.28125 182.929688 C 199.039062 182.929688 199.785156 183.003906 200.527344 183.148438 C 201.269531 183.296875 201.992188 183.515625 202.691406 183.804688 C 203.390625 184.09375 204.054688 184.449219 204.683594 184.867188 C 205.3125 185.289062 205.894531 185.765625 206.429688 186.300781 C 206.964844 186.832031 207.441406 187.414062 207.863281 188.042969 C 208.28125 188.671875 208.636719 189.332031 208.925781 190.03125 C 209.21875 190.730469 209.4375 191.449219 209.582031 192.191406 C 209.730469 192.929688 209.804688 193.679688 209.804688 194.433594 Z M 209.804688 194.433594 " fill-opacity="1" fill-rule="nonzero"/><path fill="#f2f2f2" d="M 268.589844 226.183594 C 268.371094 225.816406 267.433594 226.207031 267.257812 225.875 C 267.085938 225.546875 267.960938 225.042969 268.460938 223.890625 C 268.550781 223.683594 269.117188 222.375 268.695312 221.972656 C 267.902344 221.207031 264.261719 224.363281 262.988281 223.328125 C 262.707031 223.101562 262.511719 222.652344 261.664062 221.914062 C 261.328125 221.625 261.125 221.492188 260.929688 221.539062 C 260.648438 221.609375 260.628906 221.984375 260.328125 222.71875 C 259.878906 223.820312 259.613281 223.753906 259.351562 224.632812 C 259.15625 225.285156 259.199219 225.664062 258.972656 225.738281 C 258.648438 225.839844 258.351562 225.148438 257.9375 225.210938 C 257.519531 225.273438 257.269531 226.078125 257.1875 226.683594 C 257.039062 227.816406 257.453125 228.5625 257.683594 229.347656 C 257.933594 230.199219 258.085938 231.5 257.503906 233.335938 L 251.773438 249.457031 C 253.039062 246.148438 256.703125 237.082031 258.242188 233.710938 C 258.6875 232.738281 259.175781 231.75 260.183594 231.363281 C 261.15625 230.988281 262.488281 231.210938 264.1875 230.800781 C 264.382812 230.753906 264.933594 230.613281 265.003906 230.292969 C 265.0625 230.023438 264.738281 229.875 264.789062 229.625 C 264.855469 229.289062 265.492188 229.285156 266.273438 228.898438 C 266.824219 228.625 267.167969 228.300781 267.464844 228.019531 C 267.554688 227.9375 268.878906 226.667969 268.589844 226.183594 Z M 268.589844 226.183594 " fill-opacity="1" fill-rule="nonzero"/><path fill="#f2f2f2" d="M 246.039062 234.667969 C 245.796875 234.671875 245.71875 235.242188 245.503906 235.234375 C 245.292969 235.222656 245.296875 234.648438 244.875 234.070312 C 244.796875 233.96875 244.320312 233.3125 244 233.402344 C 243.394531 233.570312 243.894531 236.265625 243.019531 236.589844 C 242.828125 236.664062 242.550781 236.628906 241.945312 236.832031 C 241.703125 236.910156 241.578125 236.972656 241.546875 237.082031 C 241.5 237.242188 241.675781 237.359375 241.953125 237.71875 C 242.363281 238.257812 242.253906 238.367188 242.609375 238.75 C 242.875 239.03125 243.074219 239.121094 243.046875 239.253906 C 243.003906 239.441406 242.578125 239.386719 242.488281 239.609375 C 242.398438 239.832031 242.722656 240.1875 242.996094 240.402344 C 243.507812 240.800781 243.996094 240.8125 244.449219 240.925781 C 244.941406 241.050781 245.621094 241.351562 246.359375 242.164062 L 252.628906 249.625 C 251.367188 248.050781 247.96875 243.636719 246.753906 241.910156 C 246.40625 241.414062 246.0625 240.886719 246.160156 240.28125 C 246.257812 239.699219 246.75 239.109375 247.039062 238.160156 C 247.074219 238.046875 247.164062 237.738281 247.023438 237.613281 C 246.910156 237.507812 246.742188 237.621094 246.632812 237.523438 C 246.488281 237.394531 246.671875 237.082031 246.707031 236.585938 C 246.730469 236.238281 246.671875 235.976562 246.617188 235.75 C 246.601562 235.683594 246.363281 234.667969 246.039062 234.667969 Z M 246.039062 234.667969 " fill-opacity="1" fill-rule="nonzero"/><path fill="#f2f2f2" d="M 250.875 235.753906 L 250.730469 234.453125 L 250.796875 234.351562 C 251.105469 233.894531 251.261719 233.449219 251.265625 233.027344 C 251.265625 232.960938 251.261719 232.894531 251.257812 232.824219 C 251.246094 232.554688 251.230469 232.214844 251.40625 231.820312 C 251.503906 231.601562 251.78125 231.09375 252.199219 231.15625 C 252.3125 231.171875 252.398438 231.226562 252.460938 231.285156 C 252.472656 231.269531 252.480469 231.253906 252.492188 231.238281 C 252.621094 231.039062 252.726562 230.957031 252.824219 230.875 C 252.902344 230.8125 252.980469 230.746094 253.101562 230.59375 C 253.15625 230.527344 253.199219 230.464844 253.234375 230.417969 C 253.34375 230.265625 253.484375 230.085938 253.730469 230.089844 C 253.996094 230.101562 254.136719 230.324219 254.230469 230.46875 C 254.394531 230.726562 254.46875 230.914062 254.519531 231.039062 C 254.535156 231.082031 254.554688 231.132812 254.566406 231.148438 C 254.652344 231.273438 255.347656 231.15625 255.609375 231.113281 C 256.199219 231.015625 256.710938 230.933594 256.917969 231.304688 C 257.070312 231.566406 256.957031 231.917969 256.578125 232.375 C 256.457031 232.515625 256.332031 232.621094 256.21875 232.707031 C 256.3125 232.761719 256.394531 232.847656 256.429688 232.980469 C 256.507812 233.296875 256.238281 233.613281 255.621094 233.921875 C 255.46875 234 255.265625 234.101562 254.976562 234.152344 C 254.839844 234.175781 254.71875 234.179688 254.613281 234.183594 C 254.613281 234.242188 254.597656 234.308594 254.5625 234.375 C 254.453125 234.574219 254.226562 234.667969 253.890625 234.644531 C 253.515625 234.625 253.210938 234.554688 252.9375 234.492188 C 252.703125 234.4375 252.5 234.394531 252.339844 234.402344 C 252.042969 234.425781 251.8125 234.664062 251.546875 234.972656 Z M 250.875 235.753906 " fill-opacity="1" fill-rule="nonzero"/><path fill="#f2f2f2" d="M 251.554688 228.003906 L 250.328125 228.472656 L 250.214844 228.433594 C 249.695312 228.25 249.222656 228.210938 248.8125 228.316406 C 248.75 228.335938 248.683594 228.355469 248.617188 228.375 C 248.359375 228.457031 248.035156 228.558594 247.609375 228.488281 C 247.371094 228.445312 246.808594 228.308594 246.765625 227.886719 C 246.75 227.777344 246.78125 227.679688 246.820312 227.601562 C 246.804688 227.597656 246.789062 227.59375 246.769531 227.585938 C 246.542969 227.511719 246.4375 227.433594 246.332031 227.359375 C 246.25 227.300781 246.167969 227.242188 245.988281 227.160156 C 245.910156 227.125 245.84375 227.101562 245.785156 227.078125 C 245.613281 227.011719 245.402344 226.921875 245.34375 226.679688 C 245.289062 226.421875 245.464844 226.230469 245.582031 226.105469 C 245.792969 225.878906 245.953125 225.761719 246.058594 225.679688 C 246.101562 225.652344 246.144531 225.621094 246.15625 225.605469 C 246.257812 225.492188 245.964844 224.847656 245.859375 224.605469 C 245.613281 224.0625 245.402344 223.589844 245.707031 223.292969 C 245.925781 223.082031 246.296875 223.101562 246.832031 223.355469 C 247 223.433594 247.136719 223.527344 247.246094 223.613281 C 247.277344 223.511719 247.335938 223.410156 247.457031 223.34375 C 247.742188 223.183594 248.117188 223.367188 248.574219 223.882812 C 248.6875 224.011719 248.839844 224.183594 248.960938 224.449219 C 249.019531 224.574219 249.054688 224.691406 249.082031 224.789062 C 249.144531 224.777344 249.210938 224.773438 249.285156 224.792969 C 249.503906 224.847656 249.652344 225.039062 249.714844 225.371094 C 249.792969 225.738281 249.800781 226.050781 249.808594 226.328125 C 249.816406 226.570312 249.824219 226.78125 249.875 226.933594 C 249.972656 227.210938 250.261719 227.371094 250.625 227.554688 Z M 251.554688 228.003906 " fill-opacity="1" fill-rule="nonzero"/><path fill="#f2f2f2" d="M 250.875 224.167969 L 250.730469 222.863281 L 250.796875 222.765625 C 251.105469 222.308594 251.261719 221.863281 251.265625 221.441406 C 251.265625 221.375 251.261719 221.308594 251.257812 221.238281 C 251.246094 220.964844 251.230469 220.628906 251.40625 220.234375 C 251.503906 220.015625 251.78125 219.507812 252.199219 219.570312 C 252.3125 219.585938 252.398438 219.636719 252.460938 219.699219 C 252.472656 219.683594 252.480469 219.667969 252.492188 219.652344 C 252.621094 219.453125 252.726562 219.371094 252.824219 219.289062 C 252.902344 219.226562 252.980469 219.160156 253.101562 219.007812 C 253.15625 218.9375 253.199219 218.878906 253.234375 218.832031 C 253.34375 218.679688 253.484375 218.5 253.730469 218.503906 C 253.996094 218.515625 254.136719 218.738281 254.230469 218.882812 C 254.394531 219.140625 254.46875 219.328125 254.519531 219.449219 C 254.535156 219.496094 254.554688 219.546875 254.566406 219.5625 C 254.652344 219.6875 255.347656 219.570312 255.609375 219.527344 C 256.199219 219.429688 256.710938 219.34375 256.917969 219.714844 C 257.070312 219.980469 256.957031 220.332031 256.578125 220.785156 C 256.457031 220.929688 256.332031 221.035156 256.21875 221.121094 C 256.3125 221.175781 256.394531 221.261719 256.429688 221.394531 C 256.507812 221.710938 256.238281 222.023438 255.621094 222.335938 C 255.46875 222.410156 255.265625 222.515625 254.976562 222.566406 C 254.839844 222.585938 254.71875 222.59375 254.613281 222.597656 C 254.613281 222.65625 254.597656 222.722656 254.5625 222.789062 C 254.453125 222.988281 254.226562 223.082031 253.890625 223.058594 C 253.515625 223.039062 253.210938 222.96875 252.9375 222.90625 C 252.703125 222.851562 252.5 222.804688 252.339844 222.816406 C 252.042969 222.839844 251.8125 223.078125 251.546875 223.386719 Z M 250.875 224.167969 " fill-opacity="1" fill-rule="nonzero"/><path fill="#f2f2f2" d="M 252.210938 249.4375 L 251.9375 249.265625 L 251.871094 248.949219 L 251.9375 249.265625 L 251.617188 249.300781 C 251.613281 249.273438 251.597656 249.203125 251.570312 249.097656 C 251.425781 248.515625 250.992188 246.746094 250.628906 243.957031 C 250.375 242.007812 250.234375 240.003906 250.203125 238.003906 C 250.175781 236 250.269531 234.480469 250.34375 233.261719 C 250.402344 232.339844 250.472656 231.464844 250.542969 230.609375 C 250.722656 228.328125 250.894531 226.175781 250.769531 223.789062 C 250.738281 223.257812 250.679688 222.148438 250.03125 220.96875 C 249.65625 220.285156 249.136719 219.679688 248.492188 219.167969 L 248.894531 218.664062 C 249.605469 219.230469 250.179688 219.902344 250.597656 220.660156 C 251.316406 221.96875 251.382812 223.175781 251.414062 223.757812 C 251.542969 226.183594 251.367188 228.359375 251.183594 230.660156 C 251.117188 231.511719 251.046875 232.382812 250.988281 233.300781 C 250.914062 234.507812 250.820312 236.015625 250.847656 237.992188 C 250.878906 239.972656 251.019531 241.949219 251.269531 243.871094 C 251.628906 246.625 252.054688 248.371094 252.195312 248.945312 C 252.269531 249.25 252.285156 249.316406 252.210938 249.4375 Z M 252.210938 249.4375 " fill-opacity="1" fill-rule="nonzero"/><path fill="#f2f2f2" d="M 247.308594 220.1875 C 247.28125 220.1875 247.253906 220.1875 247.230469 220.1875 C 246.679688 220.15625 246.171875 219.828125 245.71875 219.210938 C 245.503906 218.921875 245.394531 218.589844 245.179688 217.929688 C 245.144531 217.828125 244.980469 217.3125 244.882812 216.601562 C 244.816406 216.136719 244.824219 215.941406 244.917969 215.769531 C 245.019531 215.578125 245.183594 215.445312 245.371094 215.355469 C 245.363281 215.292969 245.371094 215.230469 245.394531 215.164062 C 245.507812 214.898438 245.796875 214.933594 245.957031 214.949219 C 246.035156 214.960938 246.136719 214.972656 246.242188 214.964844 C 246.414062 214.957031 246.503906 214.910156 246.640625 214.832031 C 246.773438 214.761719 246.9375 214.671875 247.179688 214.621094 C 247.660156 214.519531 248.0625 214.65625 248.195312 214.703125 C 248.894531 214.933594 249.238281 215.472656 249.632812 216.101562 C 249.714844 216.226562 249.984375 216.683594 250.164062 217.3125 C 250.296875 217.765625 250.277344 217.964844 250.238281 218.117188 C 250.160156 218.421875 249.972656 218.597656 249.496094 218.988281 C 249 219.394531 248.75 219.597656 248.535156 219.722656 C 248.039062 220.007812 247.722656 220.1875 247.308594 220.1875 Z M 247.308594 220.1875 " fill-opacity="1" fill-rule="nonzero"/><path fill="#ffb6b6" d="M 185.917969 197.914062 C 186.988281 198.195312 188.003906 197.875 188.183594 197.191406 C 188.363281 196.511719 187.640625 195.730469 186.570312 195.449219 C 186.140625 195.332031 185.691406 195.316406 185.257812 195.40625 L 180.703125 194.265625 L 180.214844 196.414062 L 184.757812 197.308594 C 185.089844 197.597656 185.488281 197.808594 185.917969 197.914062 Z M 185.917969 197.914062 " fill-opacity="1" fill-rule="nonzero"/><path fill="#2f2e41" d="M 160.875 187.464844 C 160.875 187.464844 159.949219 189.238281 161.230469 190.113281 C 162.515625 190.988281 173.195312 195.042969 173.195312 195.042969 L 183.804688 197.347656 L 184.1875 194.773438 L 174.527344 191.691406 L 166.476562 186.285156 Z M 160.875 187.464844 " fill-opacity="1" fill-rule="nonzero"/><path fill="#ffb6b6" d="M 173.507812 244.699219 L 175.304688 243.890625 L 172.472656 235.4375 L 169.816406 236.628906 Z M 173.507812 244.699219 " fill-opacity="1" fill-rule="nonzero"/><path fill="#2f2e41" d="M 181.386719 245.488281 C 181.53125 245.789062 181.433594 246.132812 181.171875 246.257812 L 177.640625 247.945312 C 177.640625 247.945312 176.621094 246.714844 174.917969 246.792969 L 175.777344 248.835938 L 173.953125 249.703125 L 172.636719 246.390625 C 172.636719 246.390625 171.328125 244.910156 171.921875 243.546875 C 172.511719 242.1875 171.75 242.699219 171.75 242.699219 L 171.199219 240.527344 L 174.105469 239.535156 L 175.617188 242.640625 L 178.4375 245.09375 L 180.859375 245.125 C 181.074219 245.128906 181.28125 245.269531 181.386719 245.488281 Z M 181.386719 245.488281 " fill-opacity="1" fill-rule="nonzero"/><path fill="#ffb6b6" d="M 137.90625 240.332031 L 139.511719 241.476562 L 145.386719 234.761719 L 143.015625 233.078125 Z M 137.90625 240.332031 " fill-opacity="1" fill-rule="nonzero"/><path fill="#2f2e41" d="M 141.207031 247.519531 C 141.019531 247.796875 140.671875 247.886719 140.429688 247.722656 L 137.1875 245.535156 C 137.1875 245.535156 137.734375 244.039062 136.808594 242.609375 L 135.476562 244.378906 L 133.804688 243.25 L 136.003906 240.441406 C 136.003906 240.441406 136.621094 238.5625 138.097656 238.386719 C 139.570312 238.207031 138.742188 237.8125 138.742188 237.8125 L 140.34375 236.234375 L 142.671875 238.238281 L 140.75 241.113281 L 140.054688 244.78125 L 141.253906 246.882812 C 141.359375 247.070312 141.339844 247.320312 141.207031 247.519531 Z M 141.207031 247.519531 " fill-opacity="1" fill-rule="nonzero"/><path fill="#2f2e41" d="M 157.921875 175.972656 L 166.367188 175.972656 L 166.367188 187.554688 L 157.921875 187.554688 Z M 157.921875 175.972656 " fill-opacity="1" fill-rule="nonzero"/><path fill="#f9a826" d="M 164.472656 182.59375 L 159.886719 181.234375 L 159.015625 183.585938 L 158.894531 197.941406 C 158.894531 197.941406 165.464844 196.457031 166.949219 198.929688 L 167.445312 194.476562 C 167.445312 194.476562 169.058594 192.246094 167.695312 189.402344 C 166.332031 186.554688 165.046875 185.269531 165.046875 185.269531 L 163.976562 184.699219 Z M 164.472656 182.59375 " fill-opacity="1" fill-rule="nonzero"/><path fill="#ffb6b6" d="M 159.203125 195.773438 L 158.582031 202.085938 L 166.765625 203.820312 C 166.765625 203.820312 166.144531 198.375 166.890625 197.136719 Z M 159.203125 195.773438 " fill-opacity="1" fill-rule="nonzero"/><path fill="#2f2e41" d="M 167.261719 203.695312 C 167.261719 203.695312 162.054688 199.859375 157.589844 201.34375 C 157.589844 201.34375 152.324219 204.625 155.050781 210.316406 L 150.898438 220.15625 L 141.597656 233.152344 L 144.203125 236.246094 L 156.476562 223.5 L 160.441406 218.054688 L 170.484375 239.339844 L 173.582031 237.855469 L 169.742188 221.519531 L 167.445312 210.195312 Z M 167.261719 203.695312 " fill-opacity="1" fill-rule="nonzero"/><path fill="#2f2e41" d="M 155.113281 211 L 148.914062 209.019531 L 154.863281 192.558594 L 154.246094 183.769531 L 159.492188 182.292969 L 162.425781 195.28125 Z M 155.113281 211 " fill-opacity="1" fill-rule="nonzero"/><path fill="#2f2e41" d="M 164.703125 185.613281 L 163.765625 184.675781 L 164.183594 183.816406 C 164.183594 183.816406 166.890625 186.617188 167.386719 187.359375 C 167.882812 188.101562 172.511719 206.753906 172.511719 206.753906 L 165.527344 209.636719 L 166.890625 194.992188 L 167.394531 191.699219 C 167.46875 191.210938 167.386719 190.710938 167.15625 190.277344 Z M 164.703125 185.613281 " fill-opacity="1" fill-rule="nonzero"/><path fill="#ffb6b6" d="M 166.535156 177.320312 C 166.535156 177.589844 166.507812 177.855469 166.453125 178.121094 C 166.402344 178.382812 166.324219 178.640625 166.222656 178.890625 C 166.117188 179.140625 165.992188 179.375 165.839844 179.597656 C 165.691406 179.824219 165.519531 180.03125 165.328125 180.222656 C 165.140625 180.410156 164.929688 180.582031 164.707031 180.730469 C 164.480469 180.882812 164.246094 181.007812 163.996094 181.109375 C 163.746094 181.214844 163.488281 181.292969 163.226562 181.34375 C 162.960938 181.398438 162.691406 181.421875 162.421875 181.421875 C 162.152344 181.421875 161.886719 181.398438 161.621094 181.34375 C 161.355469 181.292969 161.097656 181.214844 160.851562 181.109375 C 160.601562 181.007812 160.363281 180.882812 160.140625 180.730469 C 159.914062 180.582031 159.707031 180.410156 159.515625 180.222656 C 159.324219 180.03125 159.15625 179.824219 159.003906 179.597656 C 158.855469 179.375 158.726562 179.140625 158.625 178.890625 C 158.523438 178.640625 158.445312 178.382812 158.390625 178.121094 C 158.339844 177.855469 158.3125 177.589844 158.3125 177.320312 C 158.3125 177.050781 158.339844 176.78125 158.390625 176.519531 C 158.445312 176.253906 158.523438 175.996094 158.625 175.75 C 158.726562 175.5 158.855469 175.261719 159.003906 175.039062 C 159.15625 174.816406 159.324219 174.609375 159.515625 174.417969 C 159.707031 174.226562 159.914062 174.058594 160.140625 173.90625 C 160.363281 173.757812 160.601562 173.632812 160.851562 173.527344 C 161.097656 173.425781 161.355469 173.347656 161.621094 173.292969 C 161.886719 173.242188 162.152344 173.214844 162.421875 173.214844 C 162.691406 173.214844 162.960938 173.242188 163.226562 173.292969 C 163.488281 173.347656 163.746094 173.425781 163.996094 173.527344 C 164.246094 173.632812 164.480469 173.757812 164.707031 173.90625 C 164.929688 174.058594 165.140625 174.226562 165.328125 174.417969 C 165.519531 174.609375 165.691406 174.816406 165.839844 175.039062 C 165.992188 175.261719 166.117188 175.5 166.222656 175.75 C 166.324219 175.996094 166.402344 176.253906 166.453125 176.519531 C 166.507812 176.78125 166.535156 177.050781 166.535156 177.320312 Z M 166.535156 177.320312 " fill-opacity="1" fill-rule="nonzero"/><path fill="#2f2e41" d="M 164.980469 175.640625 C 163.570312 174.703125 161.042969 178.464844 160.273438 176.152344 C 160.152344 175.792969 159.871094 177.386719 159.765625 177.945312 C 159.632812 178.652344 159.96875 179.21875 159.765625 179.34375 C 159.539062 179.488281 158.980469 178.847656 158.863281 178.945312 C 158.75 179.039062 159.117188 179.78125 159.765625 180.648438 C 160.625 181.792969 161.164062 182.074219 161.871094 182.847656 C 162.53125 183.570312 163.75 184.90625 163.574219 186.050781 C 163.253906 188.207031 157.980469 189.871094 156.355469 188.253906 C 155.96875 187.867188 155.890625 186.988281 155.753906 185.25 C 155.550781 182.664062 155.707031 180.722656 155.753906 180.144531 C 155.960938 177.746094 156.066406 176.546875 156.558594 175.542969 C 156.871094 174.898438 157.929688 172.738281 160.265625 172.039062 C 162.777344 171.285156 165.769531 172.511719 166.582031 174.339844 C 166.820312 174.867188 166.589844 174.8125 166.882812 176.542969 C 167.234375 178.589844 167.457031 179.820312 168.386719 180.546875 C 169.242188 181.214844 169.902344 180.839844 170.191406 181.347656 C 170.945312 182.660156 167.453125 186.816406 165.980469 186.253906 C 165.097656 185.914062 165.019531 183.886719 165.078125 182.949219 C 165.210938 180.929688 166.214844 180.5 166.183594 178.644531 C 166.175781 178.152344 166.144531 176.417969 164.980469 175.640625 Z M 164.980469 175.640625 " fill-opacity="1" fill-rule="nonzero"/><path fill="#ffb6b6" d="M 147.070312 209.9375 C 146.894531 211.03125 147.320312 212.003906 148.015625 212.117188 C 148.710938 212.226562 149.417969 211.429688 149.59375 210.335938 C 149.667969 209.902344 149.640625 209.453125 149.503906 209.03125 L 150.1875 204.390625 L 148 204.121094 L 147.558594 208.722656 C 147.300781 209.082031 147.132812 209.5 147.070312 209.9375 Z M 147.070312 209.9375 " fill-opacity="1" fill-rule="nonzero"/><path fill="#2f2e41" d="M 154.988281 184.015625 C 154.988281 184.015625 153.128906 183.273438 152.382812 184.636719 C 151.640625 185.996094 148.664062 197.011719 148.664062 197.011719 L 147.425781 207.78125 L 150.027344 207.902344 L 152.136719 198.003906 L 156.722656 189.464844 Z M 154.988281 184.015625 " fill-opacity="1" fill-rule="nonzero"/><g clip-path="url(#53ba475572)"><path fill="#e6e6e6" d="M 273.285156 249.65625 C 273.285156 249.777344 273.1875 249.875 273.070312 249.875 L 123.277344 249.875 L 123.277344 249.441406 L 273.070312 249.441406 C 273.1875 249.441406 273.285156 249.539062 273.285156 249.65625 Z M 273.285156 249.65625 " fill-opacity="1" fill-rule="nonzero"/></g></svg>